{
  "accessors": [
    {
      "bufferView": 2,
      "componentType": 5126,
      "count": 4685,
      "max": [
        1.4507935047149658,
        3.0411181449890137,
        2.6113078594207764
      ],
      "min": [
        -1.4507933855056763,
        -3.0738847255706787,
        -0.07215508818626404
      ],
      "type": "VEC3"
    },
    {
      "bufferView": 2,
      "byteOffset": 56220,
      "componentType": 5126,
      "count": 4685,
      "max": [
        1.0,
        1.0,
        1.0
      ],
      "min": [
        -1.0,
        -1.0,
        -1.0
      ],
      "type": "VEC3"
    },
    {
      "bufferView": 1,
      "componentType": 5126,
      "count": 4685,
      "max": [
        1.9950999021530151,
        0.9953595995903015
      ],
      "min": [
        0.002104705898091197,
        0.0021875707898288965
      ],
      "type": "VEC2"
    },
    {
      "bufferView": 0,
      "componentType": 5125,
      "count": 12300,
      "type": "SCALAR"
    },
    {
      "bufferView": 2,
      "byteOffset": 112440,
      "componentType": 5126,
      "count": 37,
      "max": [
        1.031406283378601,
        -0.03139615058898926,
        1.9191088676452637
      ],
      "min": [
        -1.031406283378601,
        -1.4657403230667114,
        1.2939841747283936
      ],
      "type": "VEC3"
    },
    {
      "bufferView": 2,
      "byteOffset": 112884,
      "componentType": 5126,
      "count": 37,
      "max": [
        0.9470533132553101,
        -0.002525417599827051,
        0.7897279262542725
      ],
      "min": [
        -0.9470533728599548,
        -0.6614214181900024,
        0.32106640934944153
      ],
      "type": "VEC3"
    },
    {
      "bufferView": 1,
      "byteOffset": 37480,
      "componentType": 5126,
      "count": 37,
      "max": [
        1.8594977855682373,
        0.8978902101516724
      ],
      "min": [
        0.41600319743156433,
        0.6895278096199036
      ],
      "type": "VEC2"
    },
    {
      "bufferView": 0,
      "byteOffset": 49200,
      "componentType": 5125,
      "count": 108,
      "type": "SCALAR"
    },
    {
      "bufferView": 2,
      "byteOffset": 113328,
      "componentType": 5126,
      "count": 916,
      "max": [
        0.3392062783241272,
        0.08852244168519974,
        1.7504689693450928
      ],
      "min": [
        -0.3353808522224426,
        -1.0142182111740112,
        0.3368888199329376
      ],
      "type": "VEC3"
    },
    {
      "bufferView": 2,
      "byteOffset": 124320,
      "componentType": 5126,
      "count": 916,
      "max": [
        0.9987859129905701,
        0.9819311499595642,
        0.998974084854126
      ],
      "min": [
        -0.9987860321998596,
        -0.9846534132957458,
        -0.9951813817024231
      ],
      "type": "VEC3"
    },
    {
      "bufferView": 1,
      "byteOffset": 37776,
      "componentType": 5126,
      "count": 916,
      "max": [
        0.8486176133155823,
        0.8578484058380127
      ],
      "min": [
        0.020895367488265038,
        -0.17162571847438812
      ],
      "type": "VEC2"
    },
    {
      "bufferView": 0,
      "byteOffset": 49632,
      "componentType": 5125,
      "count": 1380,
      "type": "SCALAR"
    }
  ],
  "asset": {
    "extras": {
      "author": "cedricvdk (https://sketchfab.com/cedricvdk)",
      "license": "CC-BY-4.0 (http://creativecommons.org/licenses/by/4.0/)",
      "source": "https://sketchfab.com/3d-models/pizza-planet-car-2932fa68ca9740c4bcdef91dfaf9812b",
      "title": "Pizza Planet Car"
    },
    "generator": "Sketchfab-16.75.0",
    "version": "2.0"
  },
  "bufferViews": [
    {
      "buffer": 0,
      "byteLength": 55152,
      "name": "floatBufferViews",
      "target": 34963
    },
    {
      "buffer": 0,
      "byteLength": 45104,
      "byteOffset": 55152,
      "byteStride": 8,
      "name": "floatBufferViews",
      "target": 34962
    },
    {
      "buffer": 0,
      "byteLength": 135312,
      "byteOffset": 100256,
      "byteStride": 12,
      "name": "floatBufferViews",
      "target": 34962
    }
  ],
  "buffers": [
    {
      "byteLength": 235568,
      "uri": "scene.bin"
    }
  ],
  "extensionsRequired": [
    "KHR_materials_pbrSpecularGlossiness"
  ],
  "extensionsUsed": [
    "KHR_materials_pbrSpecularGlossiness"
  ],
  "images": [
    {
      "uri": "textures/car_mat_diffuse.png"
    },
    {
      "uri": "textures/car_mat.002_diffuse.png"
    }
  ],
  "materials": [
    {
      "doubleSided": true,
      "extensions": {
        "KHR_materials_pbrSpecularGlossiness": {
          "diffuseFactor": [
            1.0,
            1.0,
            1.0,
            1.0
          ],
          "glossinessFactor": 0.4,
          "specularFactor": [
            0.0,
            0.0,
            0.0
          ]
        }
      },
      "name": "SM_Character_Geovanni__0"
    },
    {
      "doubleSided": true,
      "extensions": {
        "KHR_materials_pbrSpecularGlossiness": {
          "diffuseFactor": [
            1.0,
            1.0,
            1.0,
            1.0
          ],
          "diffuseTexture": {
            "index": 0
          },
          "glossinessFactor": 0.0,
          "specularFactor": [
            0.0,
            0.0,
            0.0
          ]
        }
      },
      "name": "car_mat"
    },
    {
      "alphaMode": "BLEND",
      "doubleSided": true,
      "extensions": {
        "KHR_materials_pbrSpecularGlossiness": {
          "diffuseFactor": [
            1.0,
            1.0,
            1.0,
            1.0
          ],
          "diffuseTexture": {
            "index": 1
          },
          "glossinessFactor": 0.6602151245377397,
          "specularFactor": [
            0.0,
            0.0,
            0.0
          ]
        }
      },
      "name": "car_mat.002"
    }
  ],
  "meshes": [
    {
      "name": "car_body_car_mat_0",
      "primitives": [
        {
          "attributes": {
            "NORMAL": 1,
            "POSITION": 0,
            "TEXCOORD_0": 2
          },
          "indices": 3,
          "material": 1,
          "mode": 4
        }
      ]
    },
    {
      "name": "car_body_car_mat.002_0",
      "primitives": [
        {
          "attributes": {
            "NORMAL": 5,
            "POSITION": 4,
            "TEXCOORD_0": 6
          },
          "indices": 7,
          "material": 2,
          "mode": 4
        }
      ]
    },
    {
      "name": "SM_Character_Geovanni__0",
      "primitives": [
        {
          "attributes": {
            "NORMAL": 9,
            "POSITION": 8,
            "TEXCOORD_0": 10
          },
          "indices": 11,
          "material": 0,
          "mode": 4
        }
      ]
    }
  ],
  "nodes": [
    {
      "children": [
        1
      ],
      "matrix": [
        1.0,
        0.0,
        0.0,
        0.0,
        0.0,
        2.220446049250313e-16,
        -1.0,
        0.0,
        0.0,
        1.0,
        2.220446049250313e-16,
        0.0,
        0.0,
        0.0,
        0.0,
        1.0
      ],
      "name": "Sketchfab_model"
    },
    {
      "children": [
        2
      ],
      "matrix": [
        0.009999999776482582,
        0.0,
        0.0,
        0.0,
        0.0,
        0.0,
        0.009999999776482582,
        0.0,
        0.0,
        -0.009999999776482582,
        0.0,
        0.0,
        0.0,
        0.0,
        0.0,
        1.0
      ],
      "name": "880d5717e51b4e9fac6a02fe1a3b5665.fbx"
    },
    {
      "children": [
        3
      ],
      "name": "RootNode"
    },
    {
      "children": [
        4,
        5,
        6
      ],
      "matrix": [
        100.0,
        0.0,
        0.0,
        0.0,
        0.0,
        -1.629206793918314e-05,
        -99.99999999999868,
        0.0,
        0.0,
        99.99999999999868,
        -1.629206793918314e-05,
        0.0,
        0.0,
        0.0,
        0.0,
        1.0
      ],
      "name": "car_body"
    },
    {
      "mesh": 0,
      "name": "car_body_car_mat_0"
    },
    {
      "mesh": 1,
      "name": "car_body_car_mat.002_0"
    },
    {
      "children": [
        7
      ],
      "matrix": [
        1.0,
        2.786342125254446e-19,
        1.1120200083314791e-17,
        0.0,
        2.7862726908727426e-19,
        0.9987450948496899,
        -0.05008109727629645,
        0.0,
        -1.1120199594059753e-17,
        0.05008109727629645,
        0.9987450948496899,
        0.0,
        0.5250536799430847,
        -0.30836620926856995,
        0.005920939147472382,
        1.0
      ],
      "name": "SM_Character_Geovanni"
    },
    {
      "mesh": 2,
      "name": "SM_Character_Geovanni__0"
    }
  ],
  "samplers": [
    {
      "magFilter": 9729,
      "minFilter": 9987,
      "wrapS": 10497,
      "wrapT": 10497
    }
  ],
  "scene": 0,
  "scenes": [
    {
      "name": "Sketchfab_Scene",
      "nodes": [
        0
      ]
    }
  ],
  "textures": [
    {
      "sampler": 0,
      "source": 0
    },
    {
      "sampler": 0,
      "source": 1
    }
  ]
}
